inDegrees=no
nColumns=32
nRows=17
DataType=double
version=3
OpenSimVersion=4.5
endheader
time	pelvis_tilt	pelvis_list	pelvis_rotation	pelvis_tz	pelvis_ty	pelvis_tx	hip_flexion_r	hip_adduction_r	hip_rotation_r	knee_angle_r	ankle_angle_r	subtalar_angle_r	mtp_angle_r	hip_flexion_l	hip_adduction_l	hip_rotation_l	knee_angle_l	ankle_angle_l	subtalar_angle_l	mtp_angle_l	lumbar_extension	lumbar_bending	lumbar_rotation	arm_flex_r	arm_add_r	arm_rot_r	elbow_flex_r	arm_flex_l	arm_add_l	arm_rot_l	elbow_flex_l
0.5199999999999998	-0.001679989796079561	0.1176690559191696	-0.0303003500928943	-0.01315231	0.8304110099999999	0.6276699099999999	0.5573543889512579	-0.07937125087828921	-0.1089407752725452	-0.2711173814548269	-0.02786181903041397	0.2752416864561412	0	-0.300276868492062	0.1765763465647582	-0.2412586779946641	-0.1882982933766809	0.3104228507082087	0.4107364840830312	0	-0.1185621001709023	-0.1194909413604676	-0.1237853958925648	-0.2162940983667108	-0.07715988660195416	-0.7250264630838119	0.5308982300005992	0.08859540987379298	-0.1734077712954656	-0.4124293133075266	0.8706681665550887
0.53	-0.004659179705470721	0.109766482234414	-0.02965728721260424	-0.01277558999999998	0.82960974	0.64176841	0.5649827314524748	-0.07318230252967595	-0.1214111955386113	-0.3046889795087605	-0.05715475272052601	0.2675012093430104	0	-0.3043425803469257	0.1651611027970971	-0.2402645920343361	-0.206188216486392	0.2910858958850874	0.408965663075581	0	-0.1117617902124518	-0.1092162898066724	-0.1207924161049202	-0.2187075651381756	-0.0786944994608284	-0.7265640878573763	0.526994950179632	0.08320718036328412	-0.1687412612615292	-0.4124556888977157	0.8723567376998081
0.5399999999999998	-0.01019099955343718	0.09713886704100108	-0.03102544330871709	-0.01189136999999998	0.8293760999999999	0.6559037	0.5752024674430866	-0.05985303261677387	-0.1232793837526413	-0.3389722889722698	-0.06289416935460662	0.2512844614796211	0	-0.302508040335545	0.1485219122999625	-0.2412186404906892	-0.2286703139628018	0.269076651910807	0.4027864189321418	0	-0.1022803010937644	-0.09405431544516382	-0.1164460114985715	-0.2200724447272934	-0.08081882591269576	-0.7277662044981712	0.5213636678628196	0.07553713740838099	-0.164634703640714	-0.4135869800774649	0.8689289946501625
0.55	-0.0270559877836493	0.08489287757102695	-0.03431149913346377	-0.01036466	0.82855562	0.66995176	0.5922898094483814	-0.0418938286624049	-0.1088090694110641	-0.3665245119006542	-0.06839176939909294	0.2090155037905644	0	-0.2839026219424399	0.1313563435903957	-0.2397994066362753	-0.2587168754134043	0.2380027938512708	0.3971480718715832	0	-0.07902205482632814	-0.08052625532298638	-0.1087091173718621	-0.2202379453990808	-0.082708253561992	-0.7288349675121384	0.5101535556092052	0.06682002099519109	-0.1598383664177035	-0.4192936768495254	0.8672165505428685
0.5599999999999998	-0.03338748761252761	0.07114561191660758	-0.03992285591025009	-0.008875959999999988	0.82888677	0.68458968	0.597905693772401	-0.02367662053869526	-0.1002229792281445	-0.3982423350185865	-0.06275368256712584	0.1766708463699099	0	-0.2783377316013075	0.1142678576963092	-0.23780263757279	-0.2849536180282204	0.2074945343449859	0.383070460451429	0	-0.06763329852446112	-0.06459571667324883	-0.1008673944069549	-0.2210566240242541	-0.08570065145686405	-0.7276842148640321	0.5022902781771016	0.05606954957766968	-0.1529926527659599	-0.4263643765318205	0.8643143613866491
0.5700000000000001	-0.03462890993838471	0.05602822919386891	-0.04563878996574321	-0.007048569999999976	0.83004077	0.6996629599999999	0.5943934727727013	-0.004219682707079616	-0.09491484671673407	-0.4240481699782523	-0.04744514802140544	0.161459756872454	0	-0.2768549620025345	0.09496189451018251	-0.2351799084420049	-0.3127636910133725	0.1630042561488761	0.3724418159827566	0	-0.06132907746193894	-0.04838352813346455	-0.08987405675882704	-0.225147376641495	-0.08619039241576999	-0.7268441566536537	0.4981592264310309	0.04575605118351526	-0.1482790795796777	-0.4304256608354378	0.8620330827111375
0.5799999999999998	-0.03466993393697647	0.03760934868652022	-0.05230374488067588	-0.005024889999999976	0.8318225	0.7150847499999999	0.5815247121717282	0.02244105902610888	-0.07909454393521707	-0.4359979012816492	-0.04191586012808575	0.1394943608049715	0	-0.2739837349872455	0.07227225434736448	-0.2314685352517432	-0.3443562132791129	0.1104200131975768	0.3550408822931755	0	-0.0558445689576389	-0.02809689393670658	-0.0811075988404857	-0.2264130798157304	-0.08889047610979978	-0.7237630838154754	0.4948239638405924	0.03342963646323483	-0.143725880684104	-0.4372203380927934	0.8555492517351549
0.5900000000000001	-0.03217101378742841	0.02072436813414775	-0.05608119510058149	-0.003047569999999999	0.83397769	0.73012826	0.5635670308425986	0.0480684700235408	-0.05835386477701374	-0.4451137177421048	-0.03024033209294912	0.1054804200476943	0	-0.2645796341166575	0.04810592548742029	-0.2299560484553952	-0.3899145130733235	0.04938430778053972	0.3399824303909198	0	-0.0543961839159265	-0.01066532134117266	-0.07396477552124706	-0.2275926270803691	-0.08976952968805679	-0.7187506975203483	0.4934425051943769	0.02148911089897769	-0.1371420104024567	-0.444226800582903	0.8508058484284953
0.5999999999999999	-0.03011731857014407	0.009290583877766437	-0.05821076269700486	-0.001554100000000003	0.83611576	0.74409476	0.5474035410032024	0.06498552653690379	-0.04540670782576533	-0.4548903813072127	-0.005492430902840692	0.09326576364634095	0	-0.2457513075074754	0.02907508047114762	-0.2228958666507714	-0.4450681892577703	-0.0160701246727914	0.3289478462492442	0	-0.0561762305592698	0.000882121692549096	-0.06693394299879188	-0.2266250057220222	-0.08828527673395252	-0.7162106407965059	0.4930322868467125	0.01496304976188078	-0.1371930213150376	-0.4467056608271828	0.8452438054175045
0.6100000000000001	-0.04009120059199794	-0.01161583547818226	-0.05517144998637034	-0.0001565499999999775	0.83775015	0.7576514599999999	0.5347520079206567	0.09250940898342716	-0.02762372243558739	-0.4465918304533677	-0.005139649071931406	0.05445677825689724	0	-0.2075124138469092	-0.003757766834306525	-0.2153763599146492	-0.5072527782498177	-0.09888889370475017	0.3090997392915522	0	-0.04387875968117275	0.0238613362383496	-0.06440380794814823	-0.2289106025166359	-0.08968987757338476	-0.7106620413586116	0.4970028909982462	0.00634590999703531	-0.1336702161151553	-0.4506692119286762	0.8301914574552417
0.6199999999999999	-0.04554457614722891	-0.026676571329129	-0.05122227072015487	0.0009040500000000173	0.83947005	0.77061957	0.5211794040289087	0.1104623250401	-0.01938476008946527	-0.4443789983551318	0.01339539991466138	0.04538882448411769	0	-0.1686427468500322	-0.03052911968150478	-0.2046104198185002	-0.5713854641339674	-0.1927541866757974	0.2925026051207382	0	-0.03884508874675168	0.03926931964484865	-0.06068068851748767	-0.2299300849374425	-0.08872208674356738	-0.708447227089944	0.4999687434823929	0.0009532552042080029	-0.1322957845135742	-0.4530899204202734	0.8205901472946149
0.6300000000000001	-0.06392279699154108	-0.03850441925722752	-0.04346244264966244	0.0009369600000000144	0.84019901	0.78229147	0.5209472464404608	0.1218651329877748	-0.01563633111572276	-0.4363981441999737	0.01756795855740422	0.02887638747671161	0	-0.107946920917409	-0.04905413075597057	-0.1754419125706251	-0.6419859812117807	-0.2594439326304282	0.2669116557967097	0	-0.02081112762813083	0.05364384438295693	-0.06161353837927892	-0.2291154446550926	-0.0883003644072043	-0.7067079262051861	0.5091323428689781	-0.002374146597812508	-0.1296036076846547	-0.455418060837135	0.8044155501798588
0.6399999999999999	-0.06862567000699631	-0.04790961667573623	-0.03555355006443887	0.0008551600000000215	0.84187902	0.79452411	0.5073848736687879	0.1283350978464492	-0.02098020605035193	-0.4334329359168538	0.03944183531849862	0.02745384447803594	0	-0.06321394316963634	-0.06413386328326295	-0.1532872681834208	-0.7087409125959796	-0.3009827929134369	0.2606025390856357	0	-0.01795043821273374	0.06320459221910292	-0.05837179646428165	-0.2298241650939292	-0.08858374601293485	-0.7062804268289989	0.5142282210031317	-0.004810185537960463	-0.1273020004612136	-0.4553250955254617	0.7964030474457756
0.6500000000000001	-0.08356213651109431	-0.05930876875154385	-0.02332136944350264	0.0003016500000000144	0.84269914	0.80580063	0.5036770085903227	0.1343206516326874	-0.03254423250449443	-0.424538422493162	0.04545855003866902	0.03034594947090308	0	-0.001652355039141816	-0.08090421457555325	-0.1277066745959761	-0.7836883245431285	-0.2882208735152892	0.2415742399811429	0	-0.004103245160427917	0.07644916304873497	-0.06143266589463746	-0.2292212130040269	-0.08853593551060325	-0.7067440028589566	0.526936085634483	-0.008447099491673594	-0.1242141122868394	-0.4559622717766665	0.7828638224523731
0.6599999999999999	-0.08311793126775491	-0.06699340704667306	-0.01617822804299631	0.000358550000000013	0.84480911	0.81726659	0.4845502982232916	0.1394270088982029	-0.04036574717465747	-0.4188760513245156	0.0650397057456759	0.03349901225380406	0	0.04006092315186863	-0.09415235914136169	-0.1167862911869829	-0.8507150419145737	-0.2584777291775655	0.215192745168687	0	-0.00868235311968161	0.08294790699051138	-0.05405570281651942	-0.226491458887246	-0.089084257049589	-0.7069525365433141	0.5307574170110813	-0.009094754699707323	-0.1221001811905298	-0.4579504751132489	0.7777452363629207
0.6700000000000002	-0.09111402779596912	-0.07647583366922879	-0.006980442246641841	0.0002371100000000126	0.84652174	0.82831649	0.4707585757488714	0.1445791510369201	-0.05411219057229314	-0.4036732006537936	0.07307648862764821	0.0411970961920685	0	0.09415970662844673	-0.1088970694355484	-0.1044394953843623	-0.91569282285479	-0.2263128237401728	0.1845577306018772	0	-0.003590943901077777	0.09215731132158465	-0.05188163360830562	-0.2216607732354905	-0.08917549884862595	-0.706662933187866	0.5374074839660653	-0.01168983083382381	-0.1208813615742603	-0.460622343640058	0.7680751694800102
0.6799999999999999	-0.09545300924934141	-0.08035579362415689	-0.007685151220657578	0.00104505000000002	0.84846016	0.83960408	0.4540685364802434	0.1503658498621677	-0.05179805380468488	-0.392620516924176	0.085312594078311	0.04856086824623287	0	0.1406038196611074	-0.1186322233114573	-0.104598361710597	-0.9684165087121446	-0.2010534714405929	0.152490248745199	0	-0.002741003985540353	0.09442213398571074	-0.0386936580467292	-0.2183360742503496	-0.09001168103180161	-0.7062193572348729	0.5434196123100273	-0.01562330537444928	-0.1190779158252343	-0.4646700993730443	0.7597421965445258
